<?xml version="1.0" encoding="utf-8"?>
<!-- Generator: Adobe Illustrator 27.9.0, SVG Export Plug-In . SVG Version: 6.00 Build 0)  -->
<svg version="1.1" id="Layer_1" xmlns="http://www.w3.org/2000/svg" xmlns:xlink="http://www.w3.org/1999/xlink" x="0px" y="0px"
	 viewBox="0 0 1920 1080" style="enable-background:new 0 0 1920 1080;" xml:space="preserve">
<style type="text/css">
	.st0{fill:url(#SVGID_1_);}
	.st1{fill:url(#SVGID_00000005226469670875202560000004364497975217961661_);}
	.st2{fill:url(#SVGID_00000155868122877477902740000016398980128245132691_);}
	.st3{fill:url(#SVGID_00000180343194371168223280000014169267860488853377_);}
	.st4{fill:url(#SVGID_00000181780145518815906250000014766293191718376853_);}
	.st5{fill:url(#SVGID_00000166650542869521814290000015708327932421724581_);}
	.st6{fill:url(#SVGID_00000020391411187624830400000011126009995837971633_);}
	.st7{fill:url(#SVGID_00000090284878930702333070000015061495564218682040_);}
	.st8{fill:url(#SVGID_00000027602121489655146740000009628702335337316026_);}
	.st9{fill:#00293F;}
	.st10{fill:url(#SVGID_00000155118292838331101940000005355738164375543699_);}
</style>
<g>
	<g>
		<linearGradient id="SVGID_1_" gradientUnits="userSpaceOnUse" x1="234.7906" y1="482.6078" x2="352.3639" y2="686.2508">
			<stop  offset="0" style="stop-color:#5DC3AD"/>
			<stop  offset="1" style="stop-color:#337BBF"/>
			<stop  offset="1" style="stop-color:#00293F"/>
		</linearGradient>
		<path class="st0" d="M231.26,741.68c74.48-9.18,131.26-68.2,133.68-147.03h0.12V443.04h-61.73V591.4
			c-0.72,48.38-28.87,85.9-72.06,94.29V741.68z"/>
	</g>
	
		<linearGradient id="SVGID_00000152972996817658952300000007732046560833664953_" gradientUnits="userSpaceOnUse" x1="441.941" y1="414.7261" x2="594.6057" y2="679.149">
		<stop  offset="0" style="stop-color:#5DC3AD"/>
		<stop  offset="1" style="stop-color:#337BBF"/>
		<stop  offset="1" style="stop-color:#00293F"/>
	</linearGradient>
	<path style="fill:url(#SVGID_00000152972996817658952300000007732046560833664953_);" d="M392.02,559.38V443.55h59.24v115.84
		c0,27.42,16.36,54.39,51.73,54.39c37.14,0,52.61-30.07,52.61-62.79V443.55h58.81v224.16h-58.81V648.7
		c-15.47,15.03-35.37,23.87-60.57,23.87C425.62,672.57,392.02,622.17,392.02,559.38z"/>
	
		<linearGradient id="SVGID_00000033342212773022448580000002628424043310502333_" gradientUnits="userSpaceOnUse" x1="637.1309" y1="350.718" x2="830.6086" y2="685.8313">
		<stop  offset="0" style="stop-color:#5DC3AD"/>
		<stop  offset="1" style="stop-color:#337BBF"/>
		<stop  offset="1" style="stop-color:#00293F"/>
	</linearGradient>
	<path style="fill:url(#SVGID_00000033342212773022448580000002628424043310502333_);" d="M658.61,338.32h59.24v202.5l67.65-97.27
		h66.76l-73.84,103.46l83.56,120.7h-69.85l-74.28-110.53v110.53h-59.24V338.32z"/>
	
		<linearGradient id="SVGID_00000029749431024883438980000002433239387433249441_" gradientUnits="userSpaceOnUse" x1="897.5141" y1="457.6975" x2="1014.5703" y2="660.4448">
		<stop  offset="0" style="stop-color:#5DC3AD"/>
		<stop  offset="1" style="stop-color:#337BBF"/>
		<stop  offset="1" style="stop-color:#00293F"/>
	</linearGradient>
	<path style="fill:url(#SVGID_00000029749431024883438980000002433239387433249441_);" d="M866.4,608.46l60.13-9.28
		c1.33,11.05,12.38,22.55,34.93,22.55c18.13,0,29.18-6.63,29.18-18.57c0-12.38-15.04-13.71-51.73-23.88
		c-31.39-8.84-63.67-26.08-63.67-70.74c0-44.21,39.79-69.86,80.91-69.86c41.12,0,76.05,22.11,84.01,55.71l-56.59,10.17
		c-1.32-5.75-10.17-15.03-26.08-15.03c-13.7,0-23.43,7.52-23.43,17.68c0,12.38,11.93,15.47,41.56,23.44
		c31.39,8.84,75.16,18.57,75.16,67.64c0,52.18-43.77,74.28-89.31,74.28C915.48,672.57,872.59,654.89,866.4,608.46z"/>
	
		<linearGradient id="SVGID_00000089541184614334610990000011462521595858438329_" gradientUnits="userSpaceOnUse" x1="1058.17" y1="353.1878" x2="1256.4008" y2="696.5337">
		<stop  offset="0" style="stop-color:#5DC3AD"/>
		<stop  offset="1" style="stop-color:#337BBF"/>
		<stop  offset="1" style="stop-color:#00293F"/>
	</linearGradient>
	<path style="fill:url(#SVGID_00000089541184614334610990000011462521595858438329_);" d="M1083.93,338.32h58.8v124.24
		c15.04-15.04,35.38-23.88,60.58-23.88c69.42,0,103.02,50.41,103.02,113.19v115.84h-59.25V551.87c0-27.41-16.36-54.38-51.73-54.38
		c-37.14,0-52.62,30.07-52.62,62.78v107.44h-58.8V338.32z"/>
	
		<linearGradient id="SVGID_00000016764986377073945720000010022577173123714182_" gradientUnits="userSpaceOnUse" x1="1366.4701" y1="350.3229" x2="1398.4999" y2="405.8001">
		<stop  offset="0" style="stop-color:#5DC3AD"/>
		<stop  offset="1" style="stop-color:#337BBF"/>
		<stop  offset="1" style="stop-color:#00293F"/>
	</linearGradient>
	<path style="fill:url(#SVGID_00000016764986377073945720000010022577173123714182_);" d="M1382.35,346.05
		c17.68,0,32.28,14.49,32.28,32.06c0,17.56-14.59,32.05-32.28,32.05s-31.83-14.49-31.83-32.05
		C1350.52,360.55,1364.66,346.05,1382.35,346.05z"/>
	
		<linearGradient id="SVGID_00000147205803585031576240000005688637873081154239_" gradientUnits="userSpaceOnUse" x1="1326.6835" y1="458.8366" x2="1438.451" y2="652.4236">
		<stop  offset="0" style="stop-color:#5DC3AD"/>
		<stop  offset="1" style="stop-color:#337BBF"/>
		<stop  offset="1" style="stop-color:#00293F"/>
	</linearGradient>
	
		<rect x="1353.16" y="443.55" style="fill:url(#SVGID_00000147205803585031576240000005688637873081154239_);" width="58.81" height="224.16"/>
	
		<linearGradient id="SVGID_00000140701473900477986460000015648489803693806724_" gradientUnits="userSpaceOnUse" x1="1510.6537" y1="453.949" x2="1628.0094" y2="657.2151">
		<stop  offset="0" style="stop-color:#5DC3AD"/>
		<stop  offset="1" style="stop-color:#337BBF"/>
		<stop  offset="1" style="stop-color:#00293F"/>
	</linearGradient>
	<path style="fill:url(#SVGID_00000140701473900477986460000015648489803693806724_);" d="M1449.99,555.41
		c0-64.55,54.38-116.73,119.38-116.73c64.55,0,119.38,52.18,119.38,116.73c0,64.99-54.82,117.16-119.38,117.16
		C1504.37,672.57,1449.99,620.4,1449.99,555.41z M1569.36,613.77c32.28,0,58.36-26.09,58.36-58.36c0-31.84-26.08-57.92-58.36-57.92
		S1511,523.57,1511,555.41C1511,587.68,1537.09,613.77,1569.36,613.77z"/>
	
		<linearGradient id="SVGID_00000068663393130012972110000009834842953213589122_" gradientUnits="userSpaceOnUse" x1="296.5227" y1="378.1084" x2="370.7047" y2="378.1084">
		<stop  offset="0" style="stop-color:#5DC3AD"/>
		<stop  offset="1" style="stop-color:#337BBF"/>
		<stop  offset="1" style="stop-color:#00293F"/>
	</linearGradient>
	<path style="fill:url(#SVGID_00000068663393130012972110000009834842953213589122_);" d="M333.61,341.02
		c-20.48,0-37.09,16.61-37.09,37.09c0,20.48,16.61,37.09,37.09,37.09c20.48,0,37.09-16.61,37.09-37.09
		C370.7,357.62,354.1,341.02,333.61,341.02z M333.61,407.51c-16.24,0-29.4-13.16-29.4-29.4c0-4.47,1-8.71,2.79-12.51
		c1.75,3.31,5.23,5.57,9.23,5.57c5.77,0,10.44-4.67,10.44-10.44c0-4.01-2.26-7.48-5.57-9.23c3.8-1.79,8.03-2.79,12.51-2.79
		c16.24,0,29.4,13.16,29.4,29.4C363.01,394.34,349.85,407.51,333.61,407.51z"/>
	<path class="st9" d="M333.61,348.71c-4.47,0-8.71,1-12.51,2.79c3.31,1.75,5.57,5.23,5.57,9.23c0,5.77-4.67,10.44-10.44,10.44
		c-4.01,0-7.48-2.26-9.23-5.57c-1.79,3.8-2.79,8.03-2.79,12.51c0,16.24,13.16,29.4,29.4,29.4c16.24,0,29.4-13.16,29.4-29.4
		S349.85,348.71,333.61,348.71z M336.62,379.69l2.95,11.49c0.02,0.1-0.05,0.19-0.15,0.19h-5.81h-5.81c-0.1,0-0.17-0.09-0.15-0.19
		l2.95-11.49l0.08-0.3c0.02-0.07-0.01-0.14-0.07-0.17c-1.8-1.04-3.01-2.98-3.01-5.2c0-3.37,2.77-6.08,6.15-6
		c3.21,0.08,5.81,2.71,5.86,5.92c0.03,2.26-1.19,4.24-3.01,5.29c-0.06,0.03-0.09,0.1-0.07,0.17L336.62,379.69z"/>
	<path class="st9" d="M339.62,372.35c-0.04-3.21-2.65-5.84-5.86-5.92c-3.38-0.08-6.15,2.64-6.15,6c0,2.22,1.21,4.17,3.01,5.2
		c0.06,0.03,0.09,0.1,0.07,0.17l-0.08,0.3l-2.95,11.49c-0.02,0.1,0.05,0.19,0.15,0.19h5.81h5.81c0.1,0,0.17-0.09,0.15-0.19
		l-2.95-11.49l-0.08-0.3c-0.02-0.07,0.01-0.14,0.07-0.17C338.43,376.59,339.65,374.61,339.62,372.35z"/>
	
		<linearGradient id="SVGID_00000176764340373982774610000006927431523390913959_" gradientUnits="userSpaceOnUse" x1="327.6078" y1="378.1084" x2="339.6196" y2="378.1084">
		<stop  offset="0" style="stop-color:#5DC3AD"/>
		<stop  offset="1" style="stop-color:#337BBF"/>
		<stop  offset="1" style="stop-color:#00293F"/>
	</linearGradient>
	<path style="fill:url(#SVGID_00000176764340373982774610000006927431523390913959_);" d="M339.62,372.35
		c-0.04-3.21-2.65-5.84-5.86-5.92c-3.38-0.08-6.15,2.64-6.15,6c0,2.22,1.21,4.17,3.01,5.2c0.06,0.03,0.09,0.1,0.07,0.17l-0.08,0.3
		l-2.95,11.49c-0.02,0.1,0.05,0.19,0.15,0.19h5.81h5.81c0.1,0,0.17-0.09,0.15-0.19l-2.95-11.49l-0.08-0.3
		c-0.02-0.07,0.01-0.14,0.07-0.17C338.43,376.59,339.65,374.61,339.62,372.35z"/>
</g>
</svg>
